<?xml version="1.0" encoding="iso-8859-1"?>
<!-- Generator: Adobe Illustrator 16.0.0, SVG Export Plug-In . SVG Version: 6.00 Build 0)  -->
<!DOCTYPE svg PUBLIC "-//W3C//DTD SVG 1.1//EN" "http://www.w3.org/Graphics/SVG/1.1/DTD/svg11.dtd">
<svg version="1.1" id="Capa_1" xmlns="http://www.w3.org/2000/svg" xmlns:xlink="http://www.w3.org/1999/xlink" x="0px" y="0px"
	 width="466.172px" height="466.172px" viewBox="0 0 466.172 466.172" style="enable-background:new 0 0 466.172 466.172;"
	 xml:space="preserve">
<g>
	<path d="M270.738,233.086c0,20.799-16.854,37.652-37.652,37.652c-20.798,0-37.652-16.854-37.652-37.652
		c0-20.798,16.854-37.652,37.652-37.652C253.885,195.434,270.738,212.288,270.738,233.086z M358.475,36.337l-17.691-10.16
		L265.24,157.064l17.69,10.16L358.475,36.337z M309.107,200.932l130.887-75.544l-10.16-17.69l-130.887,75.543L309.107,200.932z
		 M315.084,222.926v20.439h151.088v-20.439H315.084z M298.947,282.931l130.887,75.544l10.16-17.691L309.107,265.24L298.947,282.931z
		 M265.24,309.107l75.543,130.887l17.691-10.16l-75.544-130.887L265.24,309.107z M222.926,466.172h20.439V315.084h-20.439V466.172z
		 M107.698,429.834l17.69,10.16l75.544-130.887l-17.691-10.16L107.698,429.834z M156.944,265.24L26.177,340.783l10.16,17.691
		l130.887-75.544L156.944,265.24z M151.087,222.926H0v20.439h151.087V222.926z M167.224,183.241L36.337,107.698l-10.16,17.69
		l130.887,75.544L167.224,183.241z M200.932,156.944L125.388,26.177l-17.69,10.16l75.543,130.887L200.932,156.944z M243.246,0
		h-20.44v151.087h20.44V0z"/>
</g>
<g>
</g>
<g>
</g>
<g>
</g>
<g>
</g>
<g>
</g>
<g>
</g>
<g>
</g>
<g>
</g>
<g>
</g>
<g>
</g>
<g>
</g>
<g>
</g>
<g>
</g>
<g>
</g>
<g>
</g>
</svg>
